<svg width="64" height="64" xmlns="http://www.w3.org/2000/svg">
  <!-- 小猫睡觉状态 - 蜷缩姿势 -->
  
  <!-- 耳朵 -->
  <rect x="20" y="25" width="4" height="4" fill="#8B4513"/>
  <rect x="40" y="25" width="4" height="4" fill="#8B4513"/>
  <rect x="21" y="26" width="2" height="2" fill="#FFB6C1"/>
  <rect x="41" y="26" width="2" height="2" fill="#FFB6C1"/>
  
  <!-- 头部 -->
  <rect x="16" y="29" width="32" height="16" fill="#D2691E"/>
  
  <!-- 头部花纹 -->
  <rect x="20" y="32" width="4" height="2" fill="#8B4513"/>
  <rect x="40" y="32" width="4" height="2" fill="#8B4513"/>
  <rect x="28" y="35" width="8" height="2" fill="#8B4513"/>
  
  <!-- 闭着的眼睛 -->
  <rect x="22" y="35" width="4" height="2" fill="#000000"/>
  <rect x="38" y="35" width="4" height="2" fill="#000000"/>
  
  <!-- 鼻子 -->
  <rect x="30" y="38" width="4" height="2" fill="#FFB6C1"/>
  
  <!-- W形嘴巴 (睡觉时微微张开) -->
  <rect x="26" y="41" width="2" height="2" fill="#000000"/>
  <rect x="30" y="42" width="2" height="2" fill="#000000"/>
  <rect x="34" y="41" width="2" height="2" fill="#000000"/>
  
  <!-- 胡须 -->
  <rect x="12" y="37" width="6" height="1" fill="#000000"/>
  <rect x="12" y="40" width="6" height="1" fill="#000000"/>
  <rect x="46" y="37" width="6" height="1" fill="#000000"/>
  <rect x="46" y="40" width="6" height="1" fill="#000000"/>
  
  <!-- 蜷缩的身体 -->
  <rect x="20" y="45" width="24" height="12" fill="#D2691E"/>
  
  <!-- 身体花纹 -->
  <rect x="24" y="48" width="4" height="2" fill="#8B4513"/>
  <rect x="36" y="48" width="4" height="2" fill="#8B4513"/>
  <rect x="30" y="52" width="4" height="2" fill="#8B4513"/>
  
  <!-- 蜷缩的前腿 -->
  <rect x="24" y="57" width="4" height="4" fill="#D2691E"/>
  <rect x="32" y="57" width="4" height="4" fill="#D2691E"/>
  
  <!-- 蜷缩的后腿 -->
  <rect x="28" y="57" width="4" height="4" fill="#D2691E"/>
  <rect x="36" y="57" width="4" height="4" fill="#D2691E"/>
  
  <!-- 短尾巴 (蜷缩状态) -->
  <rect x="44" y="50" width="8" height="4" fill="#D2691E"/>
  <rect x="48" y="46" width="4" height="4" fill="#D2691E"/>
  
  <!-- 睡觉的Z字符号 -->
  <rect x="50" y="20" width="8" height="2" fill="#87CEEB"/>
  <rect x="54" y="22" width="2" height="2" fill="#87CEEB"/>
  <rect x="52" y="24" width="2" height="2" fill="#87CEEB"/>
  <rect x="50" y="26" width="8" height="2" fill="#87CEEB"/>
</svg>