<svg width="48" height="48" viewBox="0 0 48 48" fill="none" xmlns="http://www.w3.org/2000/svg">
  <!-- 背景圆形 -->
  <circle cx="24" cy="24" r="20" fill="#FF8A65" stroke="#FF7043" stroke-width="2"/>
  
  <!-- 食物碗 -->
  <path d="M14 26 C14 26 14 30 18 32 L30 32 C34 30 34 26 34 26 L14 26 Z" fill="#FFF" stroke="#FF7043" stroke-width="1.5" stroke-linejoin="round"/>
  
  <!-- 食物颗粒 -->
  <circle cx="20" cy="28" r="2" fill="#8BC34A"/>
  <circle cx="24" cy="27" r="1.5" fill="#FFC107"/>
  <circle cx="28" cy="28.5" r="1.8" fill="#FF9800"/>
  
  <!-- 碗边装饰 -->
  <ellipse cx="24" cy="26" rx="10" ry="2" fill="none" stroke="#FF7043" stroke-width="1.5"/>
  
  <!-- 爱心装饰 -->
  <path d="M22 18 C22 16 20 15 19 16 C18 15 16 16 16 18 C16 20 19 22 19 22 C19 22 22 20 22 18 Z" fill="#E91E63" opacity="0.8"/>
</svg>