<svg width="48" height="48" viewBox="0 0 48 48" fill="none" xmlns="http://www.w3.org/2000/svg">
  <!-- 背景圆形 -->
  <circle cx="24" cy="24" r="20" fill="#BA68C8" stroke="#AB47BC" stroke-width="2"/>
  
  <!-- 游戏手柄主体 -->
  <path d="M12 20 C12 18 13 17 15 17 L33 17 C35 17 36 18 36 20 L36 26 C36 28 35 29 33 29 L15 29 C13 29 12 28 12 26 L12 20 Z" fill="#FFF" stroke="#AB47BC" stroke-width="1.5"/>
  
  <!-- 左侧手柄 -->
  <path d="M12 22 C10 22 8 23 8 25 C8 27 10 28 12 28" fill="#FFF" stroke="#AB47BC" stroke-width="1.5"/>
  
  <!-- 右侧手柄 -->
  <path d="M36 22 C38 22 40 23 40 25 C40 27 38 28 36 28" fill="#FFF" stroke="#AB47BC" stroke-width="1.5"/>
  
  <!-- 方向键 -->
  <g fill="#AB47BC">
    <rect x="16" y="21" width="2" height="6" rx="1"/>
    <rect x="14" y="23" width="6" height="2" rx="1"/>
  </g>
  
  <!-- 按钮 -->
  <g fill="#AB47BC">
    <circle cx="28" cy="22" r="1.5"/>
    <circle cx="31" cy="22" r="1.5"/>
    <circle cx="28" cy="25" r="1.5"/>
    <circle cx="31" cy="25" r="1.5"/>
  </g>
  
  <!-- 屏幕/显示区域 -->
  <rect x="20" y="19" width="8" height="5" rx="1" fill="#E1F5FE" stroke="#AB47BC" stroke-width="1"/>
  <rect x="21" y="20" width="6" height="3" rx="0.5" fill="#81C784"/>
  
  <!-- 星星装饰 -->
  <g fill="#FFD54F" opacity="0.8">
    <path d="M14 14 L14.5 15.5 L16 15 L14.5 16.5 L14 18 L13.5 16.5 L12 15 L13.5 15.5 Z"/>
    <path d="M34 14 L34.5 15.5 L36 15 L34.5 16.5 L34 18 L33.5 16.5 L32 15 L33.5 15.5 Z"/>
  </g>
</svg>