<svg width="48" height="48" viewBox="0 0 48 48" fill="none" xmlns="http://www.w3.org/2000/svg">
  <!-- 背景圆形 -->
  <circle cx="24" cy="24" r="20" fill="#81C784" stroke="#66BB6A" stroke-width="2"/>
  
  <!-- 手掌 -->
  <path d="M16 22 C16 20 17 19 18 19 C19 19 20 20 20 22 L20 28 C20 30 19 31 18 31 C17 31 16 30 16 28 L16 22 Z" fill="#FFF" stroke="#66BB6A" stroke-width="1.5"/>
  <path d="M20 20 C20 18 21 17 22 17 C23 17 24 18 24 20 L24 28 C24 30 23 31 22 31 C21 31 20 30 20 28 L20 20 Z" fill="#FFF" stroke="#66BB6A" stroke-width="1.5"/>
  <path d="M24 21 C24 19 25 18 26 18 C27 18 28 19 28 21 L28 28 C28 30 27 31 26 31 C25 31 24 30 24 28 L24 21 Z" fill="#FFF" stroke="#66BB6A" stroke-width="1.5"/>
  <path d="M28 23 C28 21 29 20 30 20 C31 20 32 21 32 23 L32 27 C32 29 31 30 30 30 C29 30 28 29 28 27 L28 23 Z" fill="#FFF" stroke="#66BB6A" stroke-width="1.5"/>
  
  <!-- 手掌底部 -->
  <ellipse cx="24" cy="30" rx="8" ry="4" fill="#FFF" stroke="#66BB6A" stroke-width="1.5"/>
  
  <!-- 爱心装饰 -->
  <path d="M26 14 C26 12 24 11 23 12 C22 11 20 12 20 14 C20 16 23 18 23 18 C23 18 26 16 26 14 Z" fill="#E91E63" opacity="0.8"/>
  
  <!-- 互动线条 -->
  <path d="M14 16 Q18 14 22 16" stroke="#66BB6A" stroke-width="2" fill="none" stroke-linecap="round"/>
  <path d="M26 16 Q30 14 34 16" stroke="#66BB6A" stroke-width="2" fill="none" stroke-linecap="round"/>
</svg>