<svg width="24" height="24" viewBox="0 0 24 24" fill="none" xmlns="http://www.w3.org/2000/svg">
  <path d="M12 3C7.03 3 3 7.03 3 12C3 16.97 7.03 21 12 21C16.97 21 21 16.97 21 12C21 7.03 16.97 3 12 3ZM12 19C8.13 19 5 15.87 5 12C5 8.13 8.13 5 12 5C15.87 5 19 8.13 19 12C19 15.87 15.87 19 12 19Z" fill="#9370DB"/>
  <path d="M9 9C8.45 9 8 9.45 8 10C8 10.55 8.45 11 9 11C9.55 11 10 10.55 10 10C10 9.45 9.55 9 9 9Z" fill="#9370DB"/>
  <path d="M15 9C14.45 9 14 9.45 14 10C14 10.55 14.45 11 15 11C15.55 11 16 10.55 16 10C16 9.45 15.55 9 15 9Z" fill="#9370DB"/>
  <path d="M12 17.5C14.33 17.5 16.31 16.04 17 14H7C7.69 16.04 9.67 17.5 12 17.5Z" fill="#9370DB"/>
  <path d="M6 6L8 8" stroke="#9370DB" stroke-width="2" stroke-linecap="round"/>
  <path d="M18 6L16 8" stroke="#9370DB" stroke-width="2" stroke-linecap="round"/>
  <path d="M6 18L8 16" stroke="#9370DB" stroke-width="2" stroke-linecap="round"/>
  <path d="M18 18L16 16" stroke="#9370DB" stroke-width="2" stroke-linecap="round"/>
</svg>