<svg width="48" height="48" viewBox="0 0 48 48" fill="none" xmlns="http://www.w3.org/2000/svg">
  <!-- 背景圆形 -->
  <circle cx="24" cy="24" r="20" fill="#64B5F6" stroke="#42A5F5" stroke-width="2"/>
  
  <!-- 脚印路径 -->
  <g fill="#FFF" opacity="0.9">
    <!-- 第一个脚印 -->
    <ellipse cx="18" cy="20" rx="2" ry="3" transform="rotate(-15 18 20)"/>
    <circle cx="17" cy="18" r="0.8"/>
    <circle cx="19" cy="18" r="0.8"/>
    <circle cx="16.5" cy="19.5" r="0.6"/>
    <circle cx="19.5" cy="19.5" r="0.6"/>
    
    <!-- 第二个脚印 -->
    <ellipse cx="26" cy="24" rx="2" ry="3" transform="rotate(15 26 24)"/>
    <circle cx="25" cy="22" r="0.8"/>
    <circle cx="27" cy="22" r="0.8"/>
    <circle cx="24.5" cy="23.5" r="0.6"/>
    <circle cx="27.5" cy="23.5" r="0.6"/>
    
    <!-- 第三个脚印 -->
    <ellipse cx="20" cy="28" rx="2" ry="3" transform="rotate(-10 20 28)"/>
    <circle cx="19" cy="26" r="0.8"/>
    <circle cx="21" cy="26" r="0.8"/>
    <circle cx="18.5" cy="27.5" r="0.6"/>
    <circle cx="21.5" cy="27.5" r="0.6"/>
  </g>
  
  <!-- 运动轨迹线 -->
  <path d="M16 18 Q22 22 28 26 Q24 30 20 30" stroke="#42A5F5" stroke-width="2" fill="none" stroke-linecap="round" stroke-dasharray="3,2" opacity="0.7"/>
  
  <!-- 太阳装饰 -->
  <circle cx="32" cy="16" r="3" fill="#FFC107" opacity="0.8"/>
  <g stroke="#FFC107" stroke-width="1.5" stroke-linecap="round" opacity="0.6">
    <line x1="32" y1="11" x2="32" y2="13"/>
    <line x1="35.5" y1="12.5" x2="34.5" y2="13.5"/>
    <line x1="37" y1="16" x2="35" y2="16"/>
    <line x1="35.5" y1="19.5" x2="34.5" y2="18.5"/>
  </g>
</svg>